<svg xmlns="http://www.w3.org/2000/svg" viewBox="0 0 100 100">
  <defs>
    <linearGradient id="grad" x1="0%" y1="0%" x2="100%" y2="100%">
      <stop offset="0%" style="stop-color:#6366f1;stop-opacity:1" />
      <stop offset="100%" style="stop-color:#8b5cf6;stop-opacity:1" />
    </linearGradient>
  </defs>
  <circle cx="50" cy="50" r="48" fill="url(#grad)"/>
  <path d="M35 25 L35 65 C35 70, 40 75, 45 75 C50 75, 55 70, 55 65 C55 60, 50 55, 45 55 C40 55, 35 60, 35 65" stroke="white" stroke-width="4" fill="none" stroke-linecap="round"/>
  <path d="M55 30 L55 70 C55 75, 60 80, 65 80 C70 80, 75 75, 75 70 C75 65, 70 60, 65 60 C60 60, 55 65, 55 70" stroke="white" stroke-width="4" fill="none" stroke-linecap="round"/>
  <line x1="35" y1="25" x2="55" y2="30" stroke="white" stroke-width="4" stroke-linecap="round"/>
</svg>

